REM DIRINDEX 1\3,1\2\4,1\2\5,1\2\6
REM DIRNAME cjc137,folder01,folder02,folder03,folder04,folder05
TITLE ""
FILE "088.mp3" MP3
  TRACK 01 AUDIO
    TITLE "4:cjc137_3615"
    INDEX 01 00:00:00
  TRACK 02 AUDIO
    TITLE "0:"
    INDEX 01 00:00:74
  TRACK 03 AUDIO
    TITLE "6:cjc137_3616"
    INDEX 01 00:01:03
  TRACK 04 AUDIO
    TITLE "0:"
    INDEX 01 00:01:68
  TRACK 05 AUDIO
    TITLE "5:cjc137_3617"
    INDEX 01 00:01:71
  TRACK 06 AUDIO
    TITLE "0:"
    INDEX 01 00:02:71
  TRACK 07 AUDIO
    TITLE "4:cjc137_3618"
    INDEX 01 00:04:07
  TRACK 08 AUDIO
    TITLE "0:"
    INDEX 01 00:05:10
  TRACK 09 AUDIO
    TITLE "6:cjc137_3619"
    INDEX 01 00:05:18
  TRACK 10 AUDIO
    TITLE "0:"
    INDEX 01 00:06:20
  TRACK 11 AUDIO
    TITLE "5:cjc137_3620"
    INDEX 01 00:06:30
  TRACK 12 AUDIO
    TITLE "0:"
    INDEX 01 00:07:35
  TRACK 13 AUDIO
    TITLE "4:cjc137_3621"
    INDEX 01 00:08:44
  TRACK 14 AUDIO
    TITLE "0:"
    INDEX 01 00:09:73
  TRACK 15 AUDIO
    TITLE "6:cjc137_3622"
    INDEX 01 00:10:04
  TRACK 16 AUDIO
    TITLE "0:"
    INDEX 01 00:11:05
  TRACK 17 AUDIO
    TITLE "5:cjc137_3623"
    INDEX 01 00:11:13
  TRACK 18 AUDIO
    TITLE "0:"
    INDEX 01 00:12:40
  TRACK 19 AUDIO
    TITLE "4:cjc137_3624"
    INDEX 01 00:13:49
  TRACK 20 AUDIO
    TITLE "0:"
    INDEX 01 00:14:62
  TRACK 21 AUDIO
    TITLE "6:cjc137_3625"
    INDEX 01 00:14:68
  TRACK 22 AUDIO
    TITLE "0:"
    INDEX 01 00:16:08
  TRACK 23 AUDIO
    TITLE "5:cjc137_3626"
    INDEX 01 00:16:14
  TRACK 24 AUDIO
    TITLE "0:"
    INDEX 01 00:17:27
  TRACK 25 AUDIO
    TITLE "4:cjc137_3627"
    INDEX 01 00:18:35
  TRACK 26 AUDIO
    TITLE "0:"
    INDEX 01 00:19:52
  TRACK 27 AUDIO
    TITLE "6:cjc137_3628"
    INDEX 01 00:19:58
  TRACK 28 AUDIO
    TITLE "0:"
    INDEX 01 00:20:71
  TRACK 29 AUDIO
    TITLE "5:cjc137_3629"
    INDEX 01 00:21:06
  TRACK 30 AUDIO
    TITLE "0:"
    INDEX 01 00:22:23
  TRACK 31 AUDIO
    TITLE "4:cjc137_3630"
    INDEX 01 00:23:30
  TRACK 32 AUDIO
    TITLE "0:"
    INDEX 01 00:24:59
  TRACK 33 AUDIO
    TITLE "6:cjc137_3631"
    INDEX 01 00:24:71
  TRACK 34 AUDIO
    TITLE "0:"
    INDEX 01 00:27:10
  TRACK 35 AUDIO
    TITLE "5:cjc137_3632"
    INDEX 01 00:27:18
  TRACK 36 AUDIO
    TITLE "0:"
    INDEX 01 00:28:43
  TRACK 37 AUDIO
    TITLE "4:cjc137_3633"
    INDEX 01 00:29:60
  TRACK 38 AUDIO
    TITLE "0:"
    INDEX 01 00:30:55
  TRACK 39 AUDIO
    TITLE "6:cjc137_3634"
    INDEX 01 00:30:71
  TRACK 40 AUDIO
    TITLE "0:"
    INDEX 01 00:32:52
  TRACK 41 AUDIO
    TITLE "5:cjc137_3635"
    INDEX 01 00:32:62
  TRACK 42 AUDIO
    TITLE "0:"
    INDEX 01 00:33:56
  TRACK 43 AUDIO
    TITLE "4:cjc137_3636"
    INDEX 01 00:35:02
  TRACK 44 AUDIO
    TITLE "0:"
    INDEX 01 00:35:72
  TRACK 45 AUDIO
    TITLE "6:cjc137_3637"
    INDEX 01 00:36:09
  TRACK 46 AUDIO
    TITLE "0:"
    INDEX 01 00:37:10
  TRACK 47 AUDIO
    TITLE "5:cjc137_3638"
    INDEX 01 00:37:22
  TRACK 48 AUDIO
    TITLE "0:"
    INDEX 01 00:38:16
  TRACK 49 AUDIO
    TITLE "4:cjc137_3639"
    INDEX 01 00:39:35
  TRACK 50 AUDIO
    TITLE "0:"
    INDEX 01 00:40:46
  TRACK 51 AUDIO
    TITLE "6:cjc137_3640"
    INDEX 01 00:40:56
  TRACK 52 AUDIO
    TITLE "0:"
    INDEX 01 00:41:63
  TRACK 53 AUDIO
    TITLE "5:cjc137_3641"
    INDEX 01 00:41:69
  TRACK 54 AUDIO
    TITLE "0:"
    INDEX 01 00:43:09
  TRACK 55 AUDIO
    TITLE "4:cjc137_3642"
    INDEX 01 00:44:16
  TRACK 56 AUDIO
    TITLE "0:"
    INDEX 01 00:45:26
  TRACK 57 AUDIO
    TITLE "6:cjc137_3643"
    INDEX 01 00:45:33
  TRACK 58 AUDIO
    TITLE "0:"
    INDEX 01 00:46:47
  TRACK 59 AUDIO
    TITLE "5:cjc137_3644"
    INDEX 01 00:46:54
  TRACK 60 AUDIO
    TITLE "0:"
    INDEX 01 00:47:64
  TRACK 61 AUDIO
    TITLE "4:cjc137_3645"
    INDEX 01 00:49:00
  TRACK 62 AUDIO
    TITLE "0:"
    INDEX 01 00:50:11
  TRACK 63 AUDIO
    TITLE "6:cjc137_3646"
    INDEX 01 00:50:17
  TRACK 64 AUDIO
    TITLE "0:"
    INDEX 01 00:51:56
  TRACK 65 AUDIO
    TITLE "5:cjc137_3647"
    INDEX 01 00:51:63
  TRACK 66 AUDIO
    TITLE "0:"
    INDEX 01 00:53:02
  TRACK 67 AUDIO
    TITLE "4:cjc137_3648"
    INDEX 01 00:54:07
  TRACK 68 AUDIO
    TITLE "0:"
    INDEX 01 00:55:04
  TRACK 69 AUDIO
    TITLE "6:cjc137_3649"
    INDEX 01 00:55:16
  TRACK 70 AUDIO
    TITLE "0:"
    INDEX 01 00:56:08
  TRACK 71 AUDIO
    TITLE "5:cjc137_3650"
    INDEX 01 00:56:14
  TRACK 72 AUDIO
    TITLE "0:"
    INDEX 01 00:57:11
  TRACK 73 AUDIO
    TITLE "4:cjc137_3651"
    INDEX 01 00:58:24
  TRACK 74 AUDIO
    TITLE "0:"
    INDEX 01 00:59:20
  TRACK 75 AUDIO
    TITLE "6:cjc137_3652"
    INDEX 01 00:59:26
  TRACK 76 AUDIO
    TITLE "0:"
    INDEX 01 01:00:15
  TRACK 77 AUDIO
    TITLE "5:cjc137_3653"
    INDEX 01 01:00:23
  TRACK 78 AUDIO
    TITLE "0:"
    INDEX 01 01:01:17
  TRACK 79 AUDIO
    TITLE "4:cjc137_3654"
    INDEX 01 01:02:26
  TRACK 80 AUDIO
    TITLE "0:"
    INDEX 01 01:03:29
  TRACK 81 AUDIO
    TITLE "6:cjc137_3655"
    INDEX 01 01:03:35
  TRACK 82 AUDIO
    TITLE "0:"
    INDEX 01 01:04:17
  TRACK 83 AUDIO
    TITLE "5:cjc137_3656"
    INDEX 01 01:04:23
  TRACK 84 AUDIO
    TITLE "0:"
    INDEX 01 01:05:28
